<svg width="11" height="11" viewBox="0 0 11 11" fill="none" xmlns="http://www.w3.org/2000/svg">
<g opacity="0.5">
<path d="M1.25323 2.47539C1.52407 2.69422 1.76806 2.94625 2.01397 3.19196C2.0519 3.22972 2.08984 3.26747 2.12778 3.30522C2.2296 3.40655 2.33131 3.50799 2.433 3.60946C2.53972 3.71591 2.64655 3.82225 2.75336 3.92861C2.9551 4.1295 3.15674 4.33049 3.35835 4.53152C3.58809 4.76059 3.81794 4.98956 4.0478 5.21852C4.52016 5.68904 4.99239 6.15968 5.46453 6.63041C5.596 6.57494 5.67965 6.49795 5.77982 6.39753C5.81355 6.3639 5.84727 6.33028 5.88202 6.29564C5.91913 6.25827 5.95624 6.22089 5.99334 6.18352C6.03262 6.14423 6.07191 6.10496 6.11122 6.0657C6.1958 5.98116 6.28028 5.89651 6.36466 5.81177C6.49821 5.6777 6.63204 5.54393 6.76594 5.4102C7.09852 5.07794 7.43076 4.74535 7.76282 4.41257C8.02078 4.15406 8.27886 3.89566 8.53732 3.63765C8.67034 3.50484 8.80309 3.37179 8.93566 3.23854C9.01836 3.15553 9.10129 3.07275 9.18428 2.99003C9.22259 2.95175 9.26081 2.91337 9.29893 2.8749C9.78647 2.383 9.78647 2.383 10.1793 2.35693C10.4231 2.36055 10.6382 2.4492 10.811 2.62118C10.9673 2.84609 11.0188 3.04157 10.9941 3.31368C10.9471 3.52962 10.8566 3.64396 10.7059 3.80537C10.6881 3.82445 10.6703 3.84352 10.6519 3.86318C10.4501 4.07815 10.2419 4.28671 10.033 4.49481C9.98974 4.53808 9.94644 4.58136 9.90315 4.62464C9.78696 4.74076 9.67065 4.85676 9.55431 4.97272C9.48145 5.04533 9.40862 5.11797 9.3358 5.19062C9.10741 5.41843 8.87895 5.64617 8.65038 5.8738C8.38741 6.1357 8.12468 6.39783 7.86216 6.66017C7.65839 6.86377 7.45441 7.06716 7.25027 7.27038C7.12866 7.39146 7.00714 7.51262 6.88584 7.634C6.77198 7.74793 6.65786 7.86159 6.54354 7.97505C6.50174 8.01663 6.46004 8.05829 6.41843 8.10006C6.36147 8.15722 6.30417 8.21404 6.24678 8.27078C6.21486 8.3026 6.18295 8.33441 6.15006 8.3672C5.93134 8.55513 5.72412 8.64925 5.43277 8.64229C4.936 8.59611 4.57588 8.08417 4.24278 7.75294C4.1986 7.70913 4.15441 7.66533 4.11021 7.62153C3.99127 7.50363 3.87245 7.3856 3.75366 7.26754C3.67932 7.19365 3.60495 7.11979 3.53058 7.04593C3.29747 6.81441 3.06443 6.58282 2.83149 6.35112C2.5633 6.08435 2.29487 5.81783 2.02623 5.5515C1.81794 5.34498 1.60986 5.13825 1.40194 4.93136C1.278 4.80804 1.15397 4.68481 1.02972 4.5618C0.913032 4.44626 0.79661 4.33046 0.680385 4.21447C0.637788 4.17204 0.595099 4.12971 0.552308 4.08748C0.493749 4.02966 0.435541 3.97151 0.377406 3.91327C0.344801 3.88088 0.312196 3.84848 0.278602 3.8151C0.0886 3.5965 -0.00420871 3.39151 0.000146404 3.10055C0.0219315 2.88721 0.112498 2.69957 0.264497 2.54828C0.569434 2.33838 0.921415 2.2841 1.25323 2.47539Z" fill="#021118"/>
</g>
</svg>
