<svg width="11" height="11" viewBox="0 0 11 11" fill="none" xmlns="http://www.w3.org/2000/svg">
<g opacity="0.5">
<path d="M9.74677 8.52461C9.47593 8.30578 9.23194 8.05375 8.98603 7.80804C8.9481 7.77028 8.91016 7.73253 8.87222 7.69478C8.7704 7.59345 8.66869 7.49201 8.567 7.39054C8.46028 7.28409 8.35345 7.17775 8.24664 7.07139C8.0449 6.8705 7.84326 6.66951 7.64165 6.46848C7.41191 6.23941 7.18206 6.01044 6.9522 5.78148C6.47984 5.31096 6.00761 4.84032 5.53547 4.36959C5.404 4.42506 5.32035 4.50205 5.22018 4.60247C5.18645 4.6361 5.15273 4.66972 5.11798 4.70436C5.08087 4.74173 5.04376 4.7791 5.00666 4.81648C4.96738 4.85577 4.92809 4.89504 4.88878 4.9343C4.8042 5.01884 4.71972 5.10349 4.63534 5.18823C4.5018 5.3223 4.36796 5.45607 4.23406 5.5898C3.90148 5.92206 3.56924 6.25465 3.23718 6.58743C2.97922 6.84594 2.72114 7.10433 2.46268 7.36235C2.32966 7.49516 2.19691 7.62821 2.06434 7.76146C1.98164 7.84447 1.89871 7.92725 1.81572 8.00997C1.77741 8.04825 1.73919 8.08663 1.70107 8.1251C1.21353 8.617 1.21353 8.617 0.820656 8.64307C0.576923 8.63945 0.361752 8.5508 0.188962 8.37882C0.0326806 8.15391 -0.0187635 7.95842 0.00586232 7.68632C0.0528699 7.47038 0.143425 7.35603 0.294112 7.19463C0.311916 7.17555 0.329718 7.15647 0.34806 7.13682C0.549853 6.92185 0.758067 6.71329 0.966957 6.50519C1.01026 6.46192 1.05356 6.41864 1.09685 6.37536C1.21304 6.25924 1.32935 6.14324 1.44569 6.02728C1.51855 5.95466 1.59138 5.88203 1.6642 5.80938C1.89259 5.58157 2.12105 5.35383 2.34962 5.1262C2.61259 4.8643 2.87532 4.60217 3.13784 4.33983C3.34161 4.13623 3.54559 3.93284 3.74973 3.72962C3.87134 3.60854 3.99286 3.48738 4.11416 3.366C4.22802 3.25207 4.34214 3.13841 4.45646 3.02494C4.49826 2.98337 4.53996 2.94171 4.58157 2.89994C4.63853 2.84278 4.69583 2.78596 4.75322 2.72922C4.78514 2.6974 4.81705 2.66558 4.84994 2.6328C5.06866 2.44487 5.27588 2.35075 5.56723 2.35771C6.064 2.40389 6.42412 2.91583 6.75722 3.24706C6.8014 3.29087 6.84559 3.33467 6.88979 3.37847C7.00873 3.49637 7.12755 3.6144 7.24634 3.73246C7.32068 3.80635 7.39505 3.88021 7.46942 3.95407C7.70253 4.18559 7.93557 4.41718 8.16851 4.64888C8.4367 4.91565 8.70513 5.18217 8.97377 5.44849C9.18206 5.65502 9.39014 5.86175 9.59806 6.06864C9.722 6.19196 9.84603 6.31519 9.97028 6.4382C10.087 6.55374 10.2034 6.66954 10.3196 6.78553C10.3622 6.82796 10.4049 6.87029 10.4477 6.91252C10.5063 6.97034 10.5645 7.02849 10.6226 7.08673C10.6552 7.11912 10.6878 7.15152 10.7214 7.1849C10.9114 7.4035 11.0042 7.60849 10.9999 7.89945C10.9781 8.11279 10.8875 8.30043 10.7355 8.45172C10.4306 8.66162 10.0786 8.7159 9.74677 8.52461Z" fill="#021118"/>
</g>
</svg>
