<svg width="20" height="20" viewBox="0 0 20 20" fill="none" xmlns="http://www.w3.org/2000/svg">
<path d="M10 0C10.2947 0 10.5778 0.11682 10.7861 0.325195C10.9945 0.533566 11.1113 0.816666 11.1113 1.11133V5.85352L13.4824 1.74609C13.6298 1.49095 13.8726 1.30472 14.1572 1.22852C14.4418 1.15236 14.7449 1.19252 15 1.33984C15.2551 1.48719 15.4413 1.73009 15.5176 2.01465C15.5937 2.29911 15.5544 2.60236 15.4072 2.85742L13.0361 6.96484L17.1436 4.59375C17.3987 4.44651 17.7018 4.40616 17.9863 4.48242C18.2709 4.55869 18.5138 4.7449 18.6611 5C18.8083 5.25511 18.8477 5.55829 18.7715 5.84277C18.6952 6.12734 18.509 6.37023 18.2539 6.51758L14.1465 8.88867H18.8887C19.1834 8.88867 19.4664 9.00647 19.6748 9.21484C19.883 9.42317 20 9.70546 20 10C20 10.2947 19.8832 10.5778 19.6748 10.7861C19.4664 10.9944 19.1833 11.1113 18.8887 11.1113H14.1465L18.2539 13.4824C18.5089 13.6298 18.6953 13.8727 18.7715 14.1572C18.8477 14.4418 18.8074 14.7449 18.6602 15C18.5129 15.255 18.2707 15.4413 17.9863 15.5176C17.7018 15.5938 17.3978 15.5545 17.1426 15.4072L13.0361 13.0361L15.4062 17.1436C15.5535 17.3987 15.5938 17.7018 15.5176 17.9863C15.4413 18.2709 15.2551 18.5138 15 18.6611C14.7449 18.8083 14.4417 18.8476 14.1572 18.7715C13.8727 18.6952 13.6298 18.509 13.4824 18.2539L11.1113 14.1475V18.8887C11.1113 19.1833 10.9944 19.4664 10.7861 19.6748C10.5778 19.8832 10.2947 20 10 20C9.70546 20 9.42317 19.883 9.21484 19.6748C9.00647 19.4664 8.88867 19.1834 8.88867 18.8887V14.1475L6.51758 18.2539C6.37018 18.509 6.12741 18.6953 5.84277 18.7715C5.55821 18.8476 5.25508 18.8075 5 18.6602C4.74508 18.5129 4.55872 18.2707 4.48242 17.9863C4.40616 17.7018 4.44651 17.3978 4.59375 17.1426L6.96387 13.0361L2.85742 15.4072C2.60236 15.5544 2.29911 15.5937 2.01465 15.5176C1.73009 15.4413 1.48719 15.2551 1.33984 15C1.1926 14.7449 1.15232 14.4418 1.22852 14.1572C1.30472 13.8727 1.49104 13.6298 1.74609 13.4824L5.85352 11.1113H1.11133C0.816666 11.1113 0.533566 10.9945 0.325195 10.7861C0.11682 10.5778 0 10.2947 0 10C2.61784e-05 9.70551 0.117053 9.42316 0.325195 9.21484C0.533571 9.00647 0.81664 8.88867 1.11133 8.88867H5.85352L1.74609 6.51758C1.49104 6.37018 1.30472 6.12733 1.22852 5.84277C1.15238 5.55827 1.19261 5.25508 1.33984 5C1.4872 4.74494 1.73012 4.55867 2.01465 4.48242C2.29909 4.40631 2.60237 4.44658 2.85742 4.59375L6.96387 6.96387L4.59375 2.85742C4.52081 2.73104 4.47312 2.59096 4.4541 2.44629C4.43513 2.30171 4.44466 2.15451 4.48242 2.01367C4.52023 1.87283 4.58601 1.74068 4.6748 1.625C4.7635 1.50954 4.87393 1.41268 5 1.33984C5.25517 1.19261 5.55919 1.15226 5.84375 1.22852C6.1281 1.30484 6.3703 1.49115 6.51758 1.74609L8.88867 5.85352V1.11133C8.88867 0.81664 9.00647 0.533571 9.21484 0.325195C9.42316 0.117053 9.70551 2.61784e-05 10 0ZM10 7.05859C8.37578 7.05868 7.05875 8.3758 7.05859 10C7.05859 11.6243 8.37569 12.9413 10 12.9414C11.6244 12.9414 12.9414 11.6244 12.9414 10C12.9413 8.37575 11.6243 7.05859 10 7.05859Z" fill="#F84E1D"/>
</svg>
