<svg width="139" height="39" viewBox="0 0 139 39" fill="none" xmlns="http://www.w3.org/2000/svg">
<path d="M19 0C19.5599 0 20.0973 0.222254 20.4932 0.618164C20.889 1.01406 21.1113 1.55148 21.1113 2.11133V11.1211L25.6162 3.31738C25.8963 2.83265 26.3577 2.47877 26.8984 2.33398C27.4391 2.18931 28.0153 2.26508 28.5 2.54492C28.9847 2.82488 29.3385 3.28648 29.4834 3.82715C29.6282 4.36777 29.5522 4.94394 29.2725 5.42871L24.7676 13.2324L32.5723 8.72754C33.0571 8.44783 33.6332 8.37172 34.1738 8.5166C34.7144 8.66152 35.1751 9.01538 35.4551 9.5C35.7348 9.98481 35.8109 10.5609 35.666 11.1016C35.5211 11.6421 35.1672 12.1028 34.6826 12.3828L26.8789 16.8887H35.8887C36.4485 16.8887 36.9859 17.111 37.3818 17.5068C37.7777 17.9027 38 18.4401 38 19C38 19.5599 37.7777 20.0973 37.3818 20.4932C36.9859 20.889 36.4485 21.1113 35.8887 21.1113H26.8789L34.6826 25.6172C35.167 25.8972 35.5202 26.358 35.665 26.8984C35.8098 27.439 35.7348 28.0153 35.4551 28.5C35.1751 28.9847 34.7135 29.3385 34.1729 29.4834C33.6322 29.6282 33.0561 29.5522 32.5713 29.2725L24.7676 24.7686L29.2725 32.5723C29.552 33.057 29.6273 33.6333 29.4824 34.1738C29.3375 34.7144 28.9836 35.1752 28.499 35.4551C28.0142 35.7347 27.438 35.8109 26.8975 35.666C26.3569 35.5211 25.8961 35.1672 25.6162 34.6826L21.1113 26.8789V35.8887C21.1113 36.4485 20.889 36.9859 20.4932 37.3818C20.0973 37.7777 19.5599 38 19 38C18.4401 38 17.9027 37.7777 17.5068 37.3818C17.111 36.9859 16.8887 36.4485 16.8887 35.8887V26.8789L12.3838 34.6826C12.1037 35.1674 11.6423 35.5212 11.1016 35.666C10.5609 35.8107 9.98468 35.7349 9.5 35.4551C9.0153 35.1751 8.6615 34.7135 8.5166 34.1729C8.37177 33.6322 8.44782 33.0561 8.72754 32.5713L13.2314 24.7686L5.42871 29.2725C4.94394 29.5522 4.36777 29.6282 3.82715 29.4834C3.28648 29.3385 2.82488 28.9847 2.54492 28.5C2.26522 28.0153 2.1902 27.439 2.33496 26.8984C2.47976 26.358 2.83296 25.8972 3.31738 25.6172L11.1211 21.1113H2.11133C1.55148 21.1113 1.01406 20.889 0.618164 20.4932C0.222254 20.0973 0 19.5599 0 19C1.97316e-07 18.4401 0.222254 17.9027 0.618164 17.5068C1.01406 17.111 1.55148 16.8887 2.11133 16.8887H11.1211L3.31738 12.3828C2.83296 12.1028 2.47976 11.642 2.33496 11.1016C2.1902 10.561 2.26522 9.98471 2.54492 9.5C2.82488 9.0153 3.28648 8.6615 3.82715 8.5166C4.36777 8.37177 4.94394 8.44782 5.42871 8.72754L13.2314 13.2314L8.72754 5.42871C8.58895 5.18859 8.49903 4.92332 8.46289 4.64844C8.42675 4.37357 8.4448 4.09395 8.5166 3.82617C8.5884 3.55858 8.71218 3.30768 8.88086 3.08789C9.04968 2.86797 9.26085 2.68349 9.50098 2.54492C9.98575 2.26528 10.562 2.18911 11.1025 2.33398C11.6431 2.47892 12.1039 2.8328 12.3838 3.31738L16.8887 11.1211V2.11133C16.8887 1.55148 17.111 1.01406 17.5068 0.618164C17.9027 0.222254 18.4401 1.97315e-07 19 0ZM19 13.4121C15.9139 13.4122 13.4123 15.9139 13.4121 19C13.4121 22.0863 15.9137 24.5888 19 24.5889C22.0863 24.5889 24.5879 22.0863 24.5879 19C24.5877 15.9139 22.0862 13.4121 19 13.4121Z" fill="#F84E1D"/>
<path d="M132.658 22.8101C131.104 22.8101 129.867 22.5214 128.945 21.9441C128.024 21.3667 127.364 20.5368 126.967 19.4543C126.569 18.3717 126.37 17.0908 126.37 15.6113V7.41115C126.37 5.9317 126.569 4.66875 126.967 3.6223C127.364 2.55782 128.024 1.74592 128.945 1.18662C129.867 0.62731 131.104 0.347656 132.658 0.347656C134.248 0.347656 135.495 0.62731 136.398 1.18662C137.32 1.74592 137.979 2.55782 138.377 3.6223C138.792 4.66875 139 5.9317 139 7.41115V15.6384C139 17.0998 138.792 18.3717 138.377 19.4543C137.979 20.5188 137.32 21.3487 136.398 21.9441C135.495 22.5214 134.248 22.8101 132.658 22.8101ZM132.658 19.8602C133.327 19.8602 133.814 19.7159 134.122 19.4272C134.447 19.1385 134.664 18.7416 134.772 18.2364C134.88 17.7313 134.935 17.181 134.935 16.5856V6.491C134.935 5.87757 134.88 5.32729 134.772 4.84015C134.664 4.35301 134.447 3.97413 134.122 3.70349C133.814 3.41482 133.327 3.27048 132.658 3.27048C132.026 3.27048 131.547 3.41482 131.222 3.70349C130.896 3.97413 130.68 4.35301 130.571 4.84015C130.463 5.32729 130.409 5.87757 130.409 6.491V16.5856C130.409 17.181 130.454 17.7313 130.544 18.2364C130.652 18.7416 130.869 19.1385 131.195 19.4272C131.52 19.7159 132.008 19.8602 132.658 19.8602Z" fill="#032330"/>
<path d="M117.058 22.8101C115.613 22.8101 114.466 22.5034 113.616 21.89C112.767 21.2765 112.153 20.4105 111.773 19.2919C111.412 18.1552 111.231 16.8201 111.231 15.2865V7.92535C111.231 6.35569 111.412 5.00253 111.773 3.86587C112.135 2.72922 112.767 1.8632 113.671 1.26781C114.592 0.654373 115.857 0.347656 117.465 0.347656C118.965 0.347656 120.157 0.600246 121.042 1.10543C121.928 1.61061 122.56 2.34131 122.94 3.29755C123.337 4.23574 123.536 5.38141 123.536 6.73457V7.87123H119.714V6.62632C119.714 5.92268 119.66 5.31826 119.552 4.81308C119.461 4.30791 119.263 3.92902 118.956 3.67643C118.666 3.4058 118.188 3.27048 117.519 3.27048C116.814 3.27048 116.3 3.44188 115.974 3.78468C115.667 4.12748 115.468 4.57854 115.378 5.13784C115.306 5.69715 115.27 6.31058 115.27 6.97814V16.1526C115.27 16.9103 115.333 17.5689 115.459 18.1282C115.586 18.6875 115.821 19.1205 116.164 19.4272C116.507 19.7159 116.995 19.8602 117.628 19.8602C118.278 19.8602 118.775 19.6978 119.118 19.3731C119.461 19.0483 119.696 18.5973 119.823 18.0199C119.967 17.4426 120.04 16.757 120.04 15.9631V13.9063H117.682V11.3894H123.644V22.5124H121.069L120.771 20.3474C120.482 21.069 120.04 21.6644 119.443 22.1335C118.865 22.5846 118.07 22.8101 117.058 22.8101Z" fill="#032330"/>
<path d="M99.9641 22.512V0.59082H109.179V3.40539H103.975V9.71112H108.068V12.4986H103.975V19.7516H109.233V22.512H99.9641Z" fill="#032330"/>
<path d="M84.8779 22.512V0.59082H90.2712C91.2469 0.59082 92.1232 0.681032 92.9001 0.861454C93.6951 1.04188 94.3727 1.34859 94.9328 1.7816C95.5109 2.19657 95.9536 2.7649 96.2608 3.48658C96.5679 4.20827 96.7215 5.1194 96.7215 6.21997C96.7215 7.10403 96.595 7.8618 96.3421 8.49328C96.1072 9.12475 95.7549 9.62993 95.2851 10.0088C94.8153 10.3697 94.2281 10.6132 93.5235 10.7395C94.3907 10.8839 95.1044 11.1906 95.6645 11.6597C96.2427 12.1107 96.6673 12.7061 96.9383 13.4458C97.2274 14.1856 97.372 15.0787 97.372 16.1251C97.372 17.1715 97.2364 18.1007 96.9654 18.9126C96.7125 19.7065 96.324 20.374 95.8 20.9153C95.2941 21.4385 94.6527 21.8354 93.8758 22.1061C93.1169 22.3767 92.2226 22.512 91.1927 22.512H84.8779ZM88.889 19.6974H90.4067C91.6173 19.6974 92.4394 19.4088 92.873 18.8314C93.3067 18.236 93.5235 17.3249 93.5235 16.098C93.5235 15.214 93.4151 14.5013 93.1982 13.96C92.9995 13.4007 92.6562 12.9858 92.1684 12.7151C91.6986 12.4445 91.0662 12.3092 90.2712 12.3092H88.889V19.6974ZM88.889 9.54874H90.2441C91.0391 9.54874 91.6534 9.43147 92.0871 9.19692C92.5207 8.96237 92.8188 8.60153 92.9814 8.11439C93.1621 7.62725 93.2524 7.01382 93.2524 6.27409C93.2524 5.49828 93.1169 4.90289 92.8459 4.48792C92.593 4.05491 92.2045 3.76624 91.6805 3.6219C91.1566 3.45952 90.488 3.37833 89.675 3.37833H88.889V9.54874Z" fill="#032330"/>
<path d="M75.5692 22.8101C74.0153 22.8101 72.7777 22.5214 71.8562 21.9441C70.9347 21.3667 70.2752 20.5368 69.8777 19.4543C69.4802 18.3717 69.2815 17.0908 69.2815 15.6113V7.41115C69.2815 5.9317 69.4802 4.66875 69.8777 3.6223C70.2752 2.55782 70.9347 1.74592 71.8562 1.18662C72.7777 0.62731 74.0153 0.347656 75.5692 0.347656C77.1591 0.347656 78.4058 0.62731 79.3092 1.18662C80.2307 1.74592 80.8902 2.55782 81.2877 3.6223C81.7032 4.66875 81.911 5.9317 81.911 7.41115V15.6384C81.911 17.0998 81.7032 18.3717 81.2877 19.4543C80.8902 20.5188 80.2307 21.3487 79.3092 21.9441C78.4058 22.5214 77.1591 22.8101 75.5692 22.8101ZM75.5692 19.8602C76.2377 19.8602 76.7255 19.7159 77.0327 19.4272C77.3579 19.1385 77.5747 18.7416 77.6831 18.2364C77.7915 17.7313 77.8457 17.181 77.8457 16.5856V6.491C77.8457 5.87757 77.7915 5.32729 77.6831 4.84015C77.5747 4.35301 77.3579 3.97413 77.0327 3.70349C76.7255 3.41482 76.2377 3.27048 75.5692 3.27048C74.9368 3.27048 74.458 3.41482 74.1328 3.70349C73.8075 3.97413 73.5907 4.35301 73.4823 4.84015C73.3739 5.32729 73.3197 5.87757 73.3197 6.491V16.5856C73.3197 17.181 73.3649 17.7313 73.4552 18.2364C73.5636 18.7416 73.7804 19.1385 74.1057 19.4272C74.4309 19.7159 74.9187 19.8602 75.5692 19.8602Z" fill="#032330"/>
<path d="M58.4641 22.512V0.59082H62.4752V19.7516H67.7872V22.512H58.4641Z" fill="#032330"/>
<path d="M48.8269 22.8101C47.3815 22.8101 46.2342 22.5034 45.385 21.89C44.5358 21.2765 43.9215 20.4105 43.542 19.2919C43.1807 18.1552 43 16.8201 43 15.2865V7.92535C43 6.35569 43.1807 5.00253 43.542 3.86587C43.9034 2.72922 44.5358 1.8632 45.4392 1.26781C46.3606 0.654373 47.6254 0.347656 49.2335 0.347656C50.7331 0.347656 51.9256 0.600246 52.8109 1.10543C53.6963 1.61061 54.3286 2.34131 54.7081 3.29755C55.1056 4.23574 55.3043 5.38141 55.3043 6.73457V7.87123H51.4829V6.62632C51.4829 5.92268 51.4287 5.31826 51.3203 4.81308C51.23 4.30791 51.0312 3.92902 50.7241 3.67643C50.435 3.4058 49.9562 3.27048 49.2877 3.27048C48.583 3.27048 48.0681 3.44188 47.7429 3.78468C47.4357 4.12748 47.2369 4.57854 47.1466 5.13784C47.0743 5.69715 47.0382 6.31058 47.0382 6.97814V16.1526C47.0382 16.9103 47.1014 17.5689 47.2279 18.1282C47.3544 18.6875 47.5893 19.1205 47.9326 19.4272C48.2759 19.7159 48.7637 19.8602 49.3961 19.8602C50.0465 19.8602 50.5434 19.6978 50.8867 19.3731C51.23 19.0483 51.4649 18.5973 51.5913 18.0199C51.7359 17.4426 51.8082 16.757 51.8082 15.9631V13.9063H49.4503V11.3894H55.4127V22.5124H52.838L52.5399 20.3474C52.2508 21.069 51.8082 21.6644 51.2119 22.1335C50.6337 22.5846 49.8387 22.8101 48.8269 22.8101Z" fill="#032330"/>
<g opacity="0.5">
<path d="M112.681 36.564C112.387 36.564 112.148 36.5085 111.965 36.3975C111.788 36.2864 111.657 36.1297 111.572 35.9272C111.494 35.7247 111.454 35.4863 111.454 35.212V31.5184H110.856V30.8228H111.454V29.167H112.504V30.8228H113.417V31.5184H112.504V35.1434C112.504 35.3655 112.54 35.5255 112.612 35.6235C112.684 35.7149 112.822 35.7606 113.024 35.7606C113.077 35.7606 113.135 35.7574 113.201 35.7508C113.273 35.7443 113.342 35.7378 113.407 35.7312V36.5052C113.276 36.5248 113.155 36.5379 113.044 36.5444C112.933 36.5575 112.812 36.564 112.681 36.564Z" fill="#032330"/>
<path d="M108.047 36.4864V30.8235H109.097V31.6269C109.307 31.2807 109.516 31.0488 109.725 30.9312C109.934 30.8137 110.144 30.7549 110.353 30.7549C110.379 30.7549 110.402 30.7549 110.422 30.7549C110.448 30.7549 110.481 30.7581 110.52 30.7647V31.9208C110.441 31.8881 110.35 31.862 110.245 31.8424C110.147 31.8163 110.046 31.8032 109.941 31.8032C109.777 31.8032 109.627 31.8424 109.49 31.9208C109.359 31.9926 109.228 32.1363 109.097 32.3519V36.4864H108.047Z" fill="#032330"/>
<path d="M105.41 36.5648C104.991 36.5648 104.661 36.4799 104.419 36.31C104.177 36.1402 104.004 35.8985 103.899 35.585C103.801 35.2715 103.752 34.9025 103.752 34.4779V32.832C103.752 32.4074 103.801 32.0384 103.899 31.7249C104.004 31.4113 104.177 31.1697 104.419 30.9998C104.661 30.83 104.991 30.7451 105.41 30.7451C105.828 30.7451 106.156 30.83 106.391 30.9998C106.633 31.1697 106.803 31.4113 106.901 31.7249C107.006 32.0384 107.058 32.4074 107.058 32.832V34.4779C107.058 34.9025 107.006 35.2715 106.901 35.585C106.803 35.8985 106.633 36.1402 106.391 36.31C106.156 36.4799 105.828 36.5648 105.41 36.5648ZM105.41 35.7908C105.613 35.7908 105.753 35.732 105.832 35.6144C105.917 35.4969 105.966 35.3434 105.979 35.1539C105.999 34.958 106.008 34.7555 106.008 34.5465V32.7732C106.008 32.5576 105.999 32.3552 105.979 32.1657C105.966 31.9763 105.917 31.8228 105.832 31.7053C105.753 31.5812 105.613 31.5191 105.41 31.5191C105.207 31.5191 105.063 31.5812 104.978 31.7053C104.893 31.8228 104.841 31.9763 104.821 32.1657C104.808 32.3552 104.802 32.5576 104.802 32.7732V34.5465C104.802 34.7555 104.808 34.958 104.821 35.1539C104.841 35.3434 104.893 35.4969 104.978 35.6144C105.063 35.732 105.207 35.7908 105.41 35.7908Z" fill="#032330"/>
<path d="M99.4712 38.3479V30.8235H100.521V31.2742C100.645 31.1305 100.796 31.0064 100.972 30.9019C101.149 30.7974 101.358 30.7451 101.6 30.7451C101.895 30.7451 102.127 30.8235 102.297 30.9803C102.473 31.1305 102.604 31.3232 102.689 31.5583C102.774 31.7869 102.83 32.022 102.856 32.2637C102.882 32.4989 102.895 32.7013 102.895 32.8712V34.2428C102.895 34.6412 102.856 35.02 102.778 35.3793C102.699 35.732 102.555 36.0194 102.346 36.2415C102.143 36.457 101.855 36.5648 101.483 36.5648C101.28 36.5648 101.1 36.5158 100.943 36.4178C100.786 36.3133 100.645 36.1957 100.521 36.0651V38.3479H99.4712ZM101.276 35.7418C101.46 35.7418 101.59 35.6765 101.669 35.5458C101.747 35.4087 101.796 35.2258 101.816 34.9972C101.836 34.7686 101.846 34.5171 101.846 34.2428V32.8712C101.846 32.636 101.832 32.4205 101.806 32.2245C101.78 32.022 101.725 31.862 101.64 31.7445C101.554 31.6269 101.42 31.5681 101.237 31.5681C101.1 31.5681 100.969 31.5975 100.845 31.6563C100.721 31.7151 100.613 31.7836 100.521 31.862V35.4871C100.619 35.5589 100.73 35.621 100.855 35.6732C100.979 35.7189 101.12 35.7418 101.276 35.7418Z" fill="#032330"/>
<path d="M97.1159 36.5648C96.6515 36.5648 96.2786 36.4211 95.9974 36.1337C95.7161 35.8398 95.5558 35.4544 95.5166 34.9776L96.3898 34.7131C96.4421 35.0723 96.5304 35.3434 96.6547 35.5262C96.779 35.7026 96.9621 35.7908 97.2042 35.7908C97.3939 35.7908 97.5378 35.7385 97.6359 35.634C97.734 35.523 97.783 35.376 97.783 35.1931C97.783 35.0298 97.7471 34.8829 97.6751 34.7522C97.6032 34.6216 97.4854 34.4877 97.3219 34.3506L96.3506 33.5178C96.1543 33.348 95.9875 33.1585 95.8502 32.9495C95.7194 32.7405 95.654 32.4695 95.654 32.1363C95.654 31.8359 95.7128 31.5844 95.8306 31.3819C95.9548 31.1729 96.1249 31.0162 96.3408 30.9117C96.5632 30.8006 96.8215 30.7451 97.1159 30.7451C97.5868 30.7451 97.9466 30.8921 98.1951 31.186C98.4437 31.4734 98.5876 31.8228 98.6268 32.2343L97.8812 32.4989C97.855 32.3029 97.8157 32.1331 97.7634 31.9894C97.7111 31.8392 97.6359 31.7249 97.5378 31.6465C97.4396 31.5616 97.3121 31.5191 97.1551 31.5191C96.985 31.5191 96.8477 31.5779 96.743 31.6955C96.6449 31.8065 96.5959 31.9404 96.5959 32.0972C96.5959 32.1951 96.6155 32.2931 96.6547 32.3911C96.7005 32.4825 96.7757 32.574 96.8804 32.6654L97.8812 33.5864C98.0185 33.7105 98.1461 33.8444 98.2638 33.9881C98.3881 34.1317 98.4895 34.295 98.568 34.4779C98.6464 34.6608 98.6857 34.8731 98.6857 35.1148C98.6857 35.4348 98.6203 35.7026 98.4895 35.9181C98.3586 36.1337 98.1755 36.297 97.94 36.408C97.7045 36.5125 97.4298 36.5648 97.1159 36.5648Z" fill="#032330"/>
<path d="M91.4897 36.4864V30.8235H92.5396V31.3819C92.7293 31.2056 92.9386 31.0554 93.1675 30.9313C93.3964 30.8072 93.6483 30.7451 93.923 30.7451C94.1519 30.7451 94.3253 30.8039 94.443 30.9215C94.5673 31.039 94.6523 31.186 94.6981 31.3624C94.7504 31.5387 94.7766 31.7183 94.7766 31.9012V36.4864H93.7268V32.2049C93.7268 32.0024 93.6973 31.8457 93.6385 31.7347C93.5796 31.6236 93.4586 31.5681 93.2754 31.5681C93.1577 31.5681 93.0334 31.604 92.9026 31.6759C92.7783 31.7412 92.6573 31.8228 92.5396 31.9208V36.4864H91.4897Z" fill="#032330"/>
<path d="M88.3286 36.5648C88.1062 36.5648 87.9099 36.5027 87.7399 36.3786C87.5698 36.248 87.4357 36.0847 87.3376 35.8887C87.2395 35.6863 87.1904 35.474 87.1904 35.2519C87.1904 34.8992 87.2493 34.602 87.367 34.3604C87.4848 34.1187 87.645 33.9162 87.8478 33.7529C88.0571 33.5831 88.2959 33.4361 88.564 33.312C88.8388 33.1879 89.1266 33.0671 89.4274 32.9495V32.5478C89.4274 32.3192 89.4144 32.1298 89.3882 31.9796C89.362 31.8294 89.3064 31.7183 89.2214 31.6465C89.1429 31.5681 89.0219 31.5289 88.8584 31.5289C88.7145 31.5289 88.5967 31.5616 88.5052 31.6269C88.4201 31.6922 88.358 31.7869 88.3187 31.911C88.2795 32.0286 88.2599 32.169 88.2599 32.3323V32.6164L87.2199 32.5772C87.2329 31.9502 87.3768 31.4897 87.6516 31.1958C87.9263 30.8953 88.3514 30.7451 88.9271 30.7451C89.4896 30.7451 89.8886 30.8986 90.124 31.2056C90.3595 31.5126 90.4773 31.9567 90.4773 32.538V35.1245C90.4773 35.3009 90.4805 35.4707 90.4871 35.634C90.5002 35.7973 90.5132 35.9508 90.5263 36.0945C90.5459 36.2317 90.5623 36.3623 90.5754 36.4864H89.6139C89.5942 36.3819 89.5681 36.2512 89.5354 36.0945C89.5092 35.9312 89.4896 35.7842 89.4765 35.6536C89.4111 35.8757 89.2835 36.0847 89.0938 36.2806C88.9107 36.4701 88.6556 36.5648 88.3286 36.5648ZM88.7406 35.6634C88.8453 35.6634 88.9434 35.634 89.035 35.5752C89.1266 35.5164 89.2083 35.4511 89.2803 35.3793C89.3522 35.3009 89.4013 35.2389 89.4274 35.1931V33.5864C89.2639 33.6778 89.1102 33.7692 88.9663 33.8607C88.8224 33.9521 88.6949 34.0501 88.5837 34.1546C88.479 34.2526 88.394 34.3669 88.3286 34.4975C88.2697 34.6216 88.2403 34.7653 88.2403 34.9286C88.2403 35.1572 88.2828 35.3368 88.3678 35.4675C88.4528 35.5981 88.5771 35.6634 88.7406 35.6634Z" fill="#032330"/>
<path d="M84.4385 36.4864V30.8235H85.4883V31.6269C85.6976 31.2807 85.9069 31.0488 86.1162 30.9312C86.3255 30.8137 86.5349 30.7549 86.7442 30.7549C86.7703 30.7549 86.7932 30.7549 86.8128 30.7549C86.839 30.7549 86.8717 30.7581 86.911 30.7647V31.9208C86.8325 31.8881 86.7409 31.862 86.6362 31.8424C86.5381 31.8163 86.4367 31.8032 86.3321 31.8032C86.1686 31.8032 86.0181 31.8424 85.8808 31.9208C85.7499 31.9926 85.6191 32.1363 85.4883 32.3519V36.4864H84.4385Z" fill="#032330"/>
<path d="M81.8732 36.4867V29.3738H80.5291V28.5508H84.2868V29.3738H82.9819V36.4867H81.8732Z" fill="#032330"/>
<path d="M74.4758 36.5741C74.116 36.5741 73.8053 36.499 73.5437 36.3487C73.2886 36.192 73.0924 35.9797 72.955 35.7119C72.8242 35.4441 72.7588 35.1371 72.7588 34.791C72.7588 34.288 72.87 33.8537 73.0924 33.4879C73.3213 33.1156 73.596 32.7858 73.9165 32.4984C73.7988 32.2632 73.6713 32.0281 73.5339 31.793C73.4031 31.5513 73.2886 31.3031 73.1905 31.0484C73.0989 30.7871 73.0531 30.516 73.0531 30.2352C73.0531 29.8825 73.1218 29.5755 73.2592 29.3142C73.3965 29.053 73.5928 28.8505 73.8479 28.7068C74.103 28.5566 74.4038 28.4814 74.7505 28.4814C75.071 28.4814 75.3555 28.5402 75.6041 28.6578C75.8592 28.7754 76.062 28.9452 76.2124 29.1673C76.3629 29.3828 76.4381 29.6441 76.4381 29.9511C76.4381 30.2972 76.3563 30.6303 76.1928 30.9504C76.0358 31.2639 75.8429 31.5578 75.6139 31.8322C75.385 32.0999 75.1626 32.3383 74.9467 32.5474L76.1437 34.4285C76.2157 34.2913 76.2746 34.1378 76.3203 33.968C76.3727 33.7916 76.4152 33.6055 76.4479 33.4095C76.4871 33.2136 76.5166 33.0242 76.5362 32.8413H77.5762C77.5762 33.096 77.537 33.3638 77.4585 33.6447C77.3865 33.9255 77.2917 34.1933 77.1739 34.4481C77.0562 34.6963 76.9352 34.9085 76.8109 35.0849C76.8959 35.1894 77.0071 35.2841 77.1445 35.369C77.2819 35.4474 77.429 35.4866 77.586 35.4866V36.5643C77.5598 36.5643 77.5337 36.5643 77.5075 36.5643C77.4879 36.5643 77.4683 36.5643 77.4487 36.5643C77.259 36.5578 77.0889 36.5153 76.9385 36.4369C76.788 36.352 76.6507 36.2508 76.5264 36.1332C76.4086 36.0156 76.2942 35.9046 76.183 35.8001C76.0064 36.0222 75.7742 36.2083 75.4864 36.3585C75.2051 36.5022 74.8682 36.5741 74.4758 36.5741ZM74.4758 35.7021C74.7243 35.7021 74.9337 35.6433 75.1037 35.5258C75.2738 35.4017 75.421 35.2645 75.5452 35.1143L74.3286 33.243C74.1716 33.4455 74.0441 33.6839 73.946 33.9582C73.8544 34.226 73.8086 34.5036 73.8086 34.791C73.8086 34.9412 73.8282 35.0881 73.8675 35.2318C73.9067 35.369 73.9754 35.4833 74.0735 35.5748C74.1716 35.6597 74.3057 35.7021 74.4758 35.7021ZM74.5837 31.9791C74.7211 31.8158 74.8486 31.6231 74.9664 31.4011C75.0906 31.179 75.192 30.9439 75.2705 30.6957C75.349 30.4409 75.3883 30.1927 75.3883 29.9511C75.3883 29.7616 75.3294 29.6147 75.2116 29.5102C75.0939 29.3991 74.9402 29.3436 74.7505 29.3436C74.515 29.3436 74.3482 29.4351 74.2501 29.6179C74.152 29.8008 74.103 30.0066 74.103 30.2352C74.103 30.5356 74.152 30.8361 74.2501 31.1365C74.3548 31.4305 74.466 31.7113 74.5837 31.9791Z" fill="#032330"/>
<path d="M67.9941 36.5648C67.5297 36.5648 67.1764 36.4733 66.9344 36.2904C66.699 36.101 66.5387 35.8365 66.4537 35.4969C66.3752 35.1572 66.3359 34.762 66.3359 34.3114V33.0083C66.3359 32.5315 66.3785 32.1265 66.4635 31.7934C66.5485 31.4538 66.7088 31.1958 66.9442 31.0194C67.1863 30.8366 67.5362 30.7451 67.9941 30.7451C68.4061 30.7451 68.7234 30.8137 68.9458 30.9509C69.1747 31.0815 69.3317 31.2807 69.4167 31.5485C69.5018 31.8098 69.5443 32.1363 69.5443 32.5282V32.8614H68.5926V32.5184C68.5926 32.2702 68.5762 32.0743 68.5435 31.9306C68.5108 31.7869 68.4519 31.6824 68.3669 31.6171C68.2819 31.5518 68.1609 31.5191 68.0039 31.5191C67.8338 31.5191 67.703 31.5583 67.6114 31.6367C67.5199 31.7151 67.4577 31.849 67.425 32.0384C67.3988 32.2213 67.3858 32.4727 67.3858 32.7928V34.5759C67.3858 35.0592 67.4315 35.3825 67.5231 35.5458C67.6147 35.7091 67.7782 35.7908 68.0137 35.7908C68.1903 35.7908 68.3178 35.7516 68.3963 35.6732C68.4814 35.5883 68.5337 35.4707 68.5533 35.3205C68.5795 35.1703 68.5926 35.0004 68.5926 34.811V34.3506H69.5443V34.7425C69.5443 35.1213 69.4985 35.4479 69.4069 35.7222C69.3219 35.9965 69.1649 36.2055 68.936 36.3492C68.7136 36.4929 68.3996 36.5648 67.9941 36.5648Z" fill="#032330"/>
<path d="M64.2703 36.4866V30.8237H65.3201V36.4866H64.2703ZM64.2703 29.9811V28.8838H65.3201V29.9811H64.2703Z" fill="#032330"/>
<path d="M62.6946 36.564C62.4002 36.564 62.1615 36.5085 61.9783 36.3975C61.8017 36.2864 61.6709 36.1297 61.5859 35.9272C61.5074 35.7247 61.4681 35.4863 61.4681 35.212V31.5184H60.8696V30.8228H61.4681V29.167H62.518V30.8228H63.4304V31.5184H62.518V35.1434C62.518 35.3655 62.5539 35.5255 62.6259 35.6235C62.6978 35.7149 62.8352 35.7606 63.038 35.7606C63.0903 35.7606 63.1492 35.7574 63.2146 35.7508C63.2865 35.7443 63.3552 35.7378 63.4206 35.7312V36.5052C63.2898 36.5248 63.1688 36.5379 63.0576 36.5444C62.9464 36.5575 62.8254 36.564 62.6946 36.564Z" fill="#032330"/>
<path d="M58.8285 36.5648C58.3641 36.5648 57.9913 36.4211 57.71 36.1337C57.4287 35.8398 57.2685 35.4544 57.2292 34.9776L58.1025 34.7131C58.1548 35.0723 58.2431 35.3434 58.3674 35.5262C58.4917 35.7026 58.6748 35.7908 58.9168 35.7908C59.1065 35.7908 59.2504 35.7385 59.3485 35.634C59.4466 35.523 59.4957 35.376 59.4957 35.1931C59.4957 35.0298 59.4597 34.8829 59.3878 34.7522C59.3158 34.6216 59.1981 34.4877 59.0346 34.3506L58.0632 33.5178C57.867 33.348 57.7002 33.1585 57.5628 32.9495C57.432 32.7405 57.3666 32.4695 57.3666 32.1363C57.3666 31.8359 57.4255 31.5844 57.5432 31.3819C57.6675 31.1729 57.8376 31.0162 58.0534 30.9117C58.2758 30.8006 58.5342 30.7451 58.8285 30.7451C59.2995 30.7451 59.6592 30.8921 59.9078 31.186C60.1563 31.4734 60.3002 31.8228 60.3395 32.2343L59.5938 32.4989C59.5676 32.3029 59.5284 32.1331 59.4761 31.9894C59.4237 31.8392 59.3485 31.7249 59.2504 31.6465C59.1523 31.5616 59.0247 31.5191 58.8678 31.5191C58.6977 31.5191 58.5603 31.5779 58.4557 31.6955C58.3576 31.8065 58.3085 31.9404 58.3085 32.0972C58.3085 32.1951 58.3281 32.2931 58.3674 32.3911C58.4132 32.4825 58.4884 32.574 58.593 32.6654L59.5938 33.5864C59.7312 33.7105 59.8587 33.8444 59.9765 33.9881C60.1007 34.1317 60.2021 34.295 60.2806 34.4779C60.3591 34.6608 60.3983 34.8731 60.3983 35.1148C60.3983 35.4348 60.3329 35.7026 60.2021 35.9181C60.0713 36.1337 59.8881 36.297 59.6527 36.408C59.4172 36.5125 59.1425 36.5648 58.8285 36.5648Z" fill="#032330"/>
<path d="M55.3403 36.4866V30.8237H56.3902V36.4866H55.3403ZM55.3403 29.9811V28.8838H56.3902V29.9811H55.3403Z" fill="#032330"/>
<path d="M52.4422 38.2589C52.0955 38.2589 51.7815 38.2197 51.5003 38.1413C51.2255 38.0695 51.0064 37.9552 50.8429 37.7984C50.6859 37.6417 50.6074 37.4359 50.6074 37.1812C50.6074 36.9852 50.6532 36.8121 50.7448 36.6619C50.8364 36.5182 50.9541 36.3941 51.098 36.2896C51.2419 36.1851 51.3923 36.1035 51.5493 36.0447L52.0399 36.1133C51.9549 36.1916 51.8731 36.2733 51.7946 36.3582C51.7161 36.4366 51.6507 36.5182 51.5984 36.6031C51.546 36.6946 51.5199 36.7926 51.5199 36.8971C51.5199 37.0669 51.5918 37.1942 51.7357 37.2792C51.8862 37.3641 52.1511 37.4065 52.5305 37.4065C52.9033 37.4065 53.178 37.3608 53.3546 37.2694C53.5378 37.1844 53.6293 37.0473 53.6293 36.8579C53.6293 36.7403 53.6065 36.6423 53.5607 36.5639C53.5149 36.4921 53.4364 36.4333 53.3252 36.3876C53.214 36.3419 53.0537 36.3092 52.8444 36.2896L51.6082 36.1329C51.3531 36.1002 51.1634 36.0186 51.0391 35.8879C50.9148 35.7573 50.8527 35.6136 50.8527 35.4568C50.8527 35.2217 50.9181 35.0225 51.0489 34.8592C51.1863 34.6959 51.3694 34.513 51.5984 34.3105L51.9516 34.5849C51.9123 34.6371 51.8633 34.7122 51.8044 34.8102C51.7455 34.9017 51.7161 34.9931 51.7161 35.0845C51.7161 35.1564 51.7521 35.2152 51.824 35.2609C51.9025 35.3066 52.0235 35.336 52.1871 35.3491L53.1388 35.4372C53.5836 35.4764 53.9139 35.6103 54.1297 35.8389C54.3456 36.0675 54.4535 36.3941 54.4535 36.8187C54.4535 37.1322 54.3783 37.3967 54.2278 37.6123C54.0839 37.8278 53.8648 37.9878 53.5705 38.0923C53.2761 38.2034 52.9 38.2589 52.4422 38.2589ZM52.4814 34.7416C52.0955 34.7416 51.7815 34.6567 51.5395 34.4869C51.2975 34.3171 51.1176 34.0819 50.9999 33.7815C50.8887 33.481 50.8331 33.1381 50.8331 32.7528C50.8331 32.3151 50.8952 31.9494 51.0195 31.6555C51.1438 31.355 51.3269 31.1297 51.5689 30.9794C51.8175 30.8227 52.1217 30.7443 52.4814 30.7443C52.8542 30.7443 53.1584 30.839 53.3939 31.0284C53.6293 31.2113 53.8027 31.4562 53.9139 31.7632C54.0251 32.0702 54.0807 32.4099 54.0807 32.7822C54.0807 33.1675 54.0283 33.5104 53.9237 33.8109C53.8256 34.1048 53.6588 34.3334 53.4233 34.4967C53.1944 34.66 52.8804 34.7416 52.4814 34.7416ZM52.4814 33.9872C52.6253 33.9872 52.7398 33.9611 52.8248 33.9089C52.9098 33.8501 52.972 33.7684 53.0112 33.6639C53.057 33.5594 53.0864 33.432 53.0995 33.2818C53.1191 33.1251 53.129 32.9487 53.129 32.7528C53.129 32.5568 53.1224 32.3805 53.1093 32.2237C53.0963 32.0669 53.0668 31.9363 53.021 31.8318C52.9752 31.7208 52.9098 31.6359 52.8248 31.5771C52.7398 31.5183 52.6286 31.4889 52.4912 31.4889C52.3473 31.4889 52.2296 31.5183 52.138 31.5771C52.053 31.6293 51.9843 31.711 51.932 31.822C51.8862 31.9265 51.8535 32.0571 51.8339 32.2139C51.8208 32.3707 51.8142 32.5503 51.8142 32.7528C51.8142 32.9291 51.8208 33.0924 51.8339 33.2426C51.8535 33.3929 51.8862 33.5235 51.932 33.6345C51.9778 33.7456 52.0432 33.8337 52.1282 33.8991C52.2198 33.9578 52.3375 33.9872 52.4814 33.9872ZM53.8844 31.773L53.6392 31.3811C53.6915 31.2897 53.8092 31.1754 53.9924 31.0382C54.1755 30.9011 54.3717 30.7868 54.5811 30.6953L54.8558 31.3811C54.7642 31.4007 54.6399 31.4366 54.4829 31.4889C54.3325 31.5412 54.1951 31.5967 54.0709 31.6555C53.9466 31.7077 53.8844 31.7469 53.8844 31.773Z" fill="#032330"/>
<path d="M48.3427 36.5648C47.9241 36.5648 47.5938 36.4799 47.3517 36.31C47.1097 36.1402 46.9364 35.8985 46.8317 35.585C46.7336 35.2715 46.6846 34.9025 46.6846 34.4779V32.832C46.6846 32.4074 46.7336 32.0384 46.8317 31.7249C46.9364 31.4113 47.1097 31.1697 47.3517 30.9998C47.5938 30.83 47.9241 30.7451 48.3427 30.7451C48.7613 30.7451 49.0884 30.83 49.3238 30.9998C49.5659 31.1697 49.7359 31.4113 49.834 31.7249C49.9387 32.0384 49.991 32.4074 49.991 32.832V34.4779C49.991 34.9025 49.9387 35.2715 49.834 35.585C49.7359 35.8985 49.5659 36.1402 49.3238 36.31C49.0884 36.4799 48.7613 36.5648 48.3427 36.5648ZM48.3427 35.7908C48.5455 35.7908 48.6861 35.732 48.7646 35.6144C48.8496 35.4969 48.8987 35.3434 48.9118 35.1539C48.9314 34.958 48.9412 34.7555 48.9412 34.5465V32.7732C48.9412 32.5576 48.9314 32.3552 48.9118 32.1657C48.8987 31.9763 48.8496 31.8228 48.7646 31.7053C48.6861 31.5812 48.5455 31.5191 48.3427 31.5191C48.1399 31.5191 47.996 31.5812 47.911 31.7053C47.826 31.8228 47.7736 31.9763 47.754 32.1657C47.7409 32.3552 47.7344 32.5576 47.7344 32.7732V34.5465C47.7344 34.7555 47.7409 34.958 47.754 35.1539C47.7736 35.3434 47.826 35.4969 47.911 35.6144C47.996 35.732 48.1399 35.7908 48.3427 35.7908Z" fill="#032330"/>
<path d="M43 36.4867V28.5508H44.1087V35.6931H46.1397V36.4867H43Z" fill="#032330"/>
</g>
</svg>
