<svg xmlns="http://www.w3.org/2000/svg" xmlns:xlink="http://www.w3.org/1999/xlink" width="475" zoomAndPan="magnify" viewBox="0 0 356.25 60" height="80" preserveAspectRatio="xMidYMid meet" version="1.0"><defs><g/></defs><g fill="#032330" fill-opacity="1"><g transform="translate(3.254866, 48.211657)"><g><path d="M 23.40625 0 L 11.625 -15.46875 L 11.625 0 L 3.09375 0 L 3.09375 -35.015625 L 11.625 -35.015625 L 11.625 -19.65625 L 23.296875 -35.015625 L 33.328125 -35.015625 L 19.75 -17.859375 L 33.828125 0 Z M 23.40625 0 "/></g></g></g><g fill="#032330" fill-opacity="1"><g transform="translate(35.531521, 48.211657)"><g><path d="M 11.625 -35.015625 L 11.625 0 L 3.09375 0 L 3.09375 -35.015625 Z M 11.625 -35.015625 "/></g></g></g><g fill="#032330" fill-opacity="1"><g transform="translate(47.753509, 48.211657)"><g><path d="M 20.953125 0 L 13.671875 -13.21875 L 11.625 -13.21875 L 11.625 0 L 3.09375 0 L 3.09375 -35.015625 L 17.40625 -35.015625 C 20.164062 -35.015625 22.519531 -34.53125 24.46875 -33.5625 C 26.414062 -32.601562 27.867188 -31.285156 28.828125 -29.609375 C 29.796875 -27.929688 30.28125 -26.0625 30.28125 -24 C 30.28125 -21.664062 29.625 -19.582031 28.3125 -17.75 C 27 -15.925781 25.0625 -14.632812 22.5 -13.875 L 30.578125 0 Z M 11.625 -19.25 L 16.90625 -19.25 C 18.46875 -19.25 19.640625 -19.628906 20.421875 -20.390625 C 21.210938 -21.160156 21.609375 -22.242188 21.609375 -23.640625 C 21.609375 -24.972656 21.210938 -26.019531 20.421875 -26.78125 C 19.640625 -27.550781 18.46875 -27.9375 16.90625 -27.9375 L 11.625 -27.9375 Z M 11.625 -19.25 "/></g></g></g><g fill="#032330" fill-opacity="1"><g transform="translate(77.785246, 48.211657)"><g><path d="M 24.890625 -6.1875 L 11.828125 -6.1875 L 9.734375 0 L 0.796875 0 L 13.46875 -35.015625 L 23.34375 -35.015625 L 36.015625 0 L 26.984375 0 Z M 22.703125 -12.765625 L 18.359375 -25.59375 L 14.0625 -12.765625 Z M 22.703125 -12.765625 "/></g></g></g><g fill="#032330" fill-opacity="1"><g transform="translate(112.057396, 48.211657)"><g><path d="M 34.421875 0 L 25.890625 0 L 11.625 -21.609375 L 11.625 0 L 3.09375 0 L 3.09375 -35.015625 L 11.625 -35.015625 L 25.890625 -13.328125 L 25.890625 -35.015625 L 34.421875 -35.015625 Z M 34.421875 0 "/></g></g></g><g fill="#032330" fill-opacity="1"><g transform="translate(147.077856, 48.211657)"><g><path d="M 24.890625 -6.1875 L 11.828125 -6.1875 L 9.734375 0 L 0.796875 0 L 13.46875 -35.015625 L 23.34375 -35.015625 L 36.015625 0 L 26.984375 0 Z M 22.703125 -12.765625 L 18.359375 -25.59375 L 14.0625 -12.765625 Z M 22.703125 -12.765625 "/></g></g></g><g fill="#ff3131" fill-opacity="1"><g transform="translate(181.356474, 48.211657)"><g/></g></g><g fill="#f84e1d" fill-opacity="1"><g transform="translate(189.448812, 48.211657)"><g><path d="M 20.953125 0 L 13.671875 -13.21875 L 11.625 -13.21875 L 11.625 0 L 3.09375 0 L 3.09375 -35.015625 L 17.40625 -35.015625 C 20.164062 -35.015625 22.519531 -34.53125 24.46875 -33.5625 C 26.414062 -32.601562 27.867188 -31.285156 28.828125 -29.609375 C 29.796875 -27.929688 30.28125 -26.0625 30.28125 -24 C 30.28125 -21.664062 29.625 -19.582031 28.3125 -17.75 C 27 -15.925781 25.0625 -14.632812 22.5 -13.875 L 30.578125 0 Z M 11.625 -19.25 L 16.90625 -19.25 C 18.46875 -19.25 19.640625 -19.628906 20.421875 -20.390625 C 21.210938 -21.160156 21.609375 -22.242188 21.609375 -23.640625 C 21.609375 -24.972656 21.210938 -26.019531 20.421875 -26.78125 C 19.640625 -27.550781 18.46875 -27.9375 16.90625 -27.9375 L 11.625 -27.9375 Z M 11.625 -19.25 "/></g></g></g><g fill="#f84e1d" fill-opacity="1"><g transform="translate(219.480549, 48.211657)"><g><path d="M 24.890625 -6.1875 L 11.828125 -6.1875 L 9.734375 0 L 0.796875 0 L 13.46875 -35.015625 L 23.34375 -35.015625 L 36.015625 0 L 26.984375 0 Z M 22.703125 -12.765625 L 18.359375 -25.59375 L 14.0625 -12.765625 Z M 22.703125 -12.765625 "/></g></g></g><g fill="#f84e1d" fill-opacity="1"><g transform="translate(253.752698, 48.211657)"><g><path d="M 1.640625 -17.5625 C 1.640625 -21.019531 2.390625 -24.101562 3.890625 -26.8125 C 5.390625 -29.519531 7.476562 -31.628906 10.15625 -33.140625 C 12.832031 -34.660156 15.863281 -35.421875 19.25 -35.421875 C 23.414062 -35.421875 26.976562 -34.320312 29.9375 -32.125 C 32.894531 -29.9375 34.875 -26.945312 35.875 -23.15625 L 26.484375 -23.15625 C 25.785156 -24.613281 24.796875 -25.722656 23.515625 -26.484375 C 22.242188 -27.253906 20.789062 -27.640625 19.15625 -27.640625 C 16.53125 -27.640625 14.398438 -26.722656 12.765625 -24.890625 C 11.140625 -23.066406 10.328125 -20.625 10.328125 -17.5625 C 10.328125 -14.5 11.140625 -12.050781 12.765625 -10.21875 C 14.398438 -8.394531 16.53125 -7.484375 19.15625 -7.484375 C 20.789062 -7.484375 22.242188 -7.863281 23.515625 -8.625 C 24.796875 -9.394531 25.785156 -10.507812 26.484375 -11.96875 L 35.875 -11.96875 C 34.875 -8.175781 32.894531 -5.191406 29.9375 -3.015625 C 26.976562 -0.835938 23.414062 0.25 19.25 0.25 C 15.863281 0.25 12.832031 -0.503906 10.15625 -2.015625 C 7.476562 -3.535156 5.390625 -5.640625 3.890625 -8.328125 C 2.390625 -11.023438 1.640625 -14.101562 1.640625 -17.5625 Z M 1.640625 -17.5625 "/></g></g></g><g fill="#f84e1d" fill-opacity="1"><g transform="translate(289.272032, 48.211657)"><g><path d="M 23.40625 0 L 11.625 -15.46875 L 11.625 0 L 3.09375 0 L 3.09375 -35.015625 L 11.625 -35.015625 L 11.625 -19.65625 L 23.296875 -35.015625 L 33.328125 -35.015625 L 19.75 -17.859375 L 33.828125 0 Z M 23.40625 0 "/></g></g></g><g fill="#f84e1d" fill-opacity="1"><g transform="translate(321.548688, 48.211657)"><g><path d="M 15.765625 0.34375 C 13.203125 0.34375 10.90625 -0.0664062 8.875 -0.890625 C 6.851562 -1.722656 5.234375 -2.953125 4.015625 -4.578125 C 2.796875 -6.210938 2.15625 -8.179688 2.09375 -10.484375 L 11.171875 -10.484375 C 11.304688 -9.179688 11.753906 -8.1875 12.515625 -7.5 C 13.285156 -6.820312 14.285156 -6.484375 15.515625 -6.484375 C 16.773438 -6.484375 17.769531 -6.773438 18.5 -7.359375 C 19.238281 -7.941406 19.609375 -8.75 19.609375 -9.78125 C 19.609375 -10.644531 19.316406 -11.359375 18.734375 -11.921875 C 18.148438 -12.484375 17.429688 -12.945312 16.578125 -13.3125 C 15.734375 -13.6875 14.53125 -14.101562 12.96875 -14.5625 C 10.707031 -15.257812 8.859375 -15.957031 7.421875 -16.65625 C 5.992188 -17.363281 4.765625 -18.394531 3.734375 -19.75 C 2.703125 -21.113281 2.1875 -22.894531 2.1875 -25.09375 C 2.1875 -28.351562 3.367188 -30.90625 5.734375 -32.75 C 8.097656 -34.59375 11.175781 -35.515625 14.96875 -35.515625 C 18.820312 -35.515625 21.929688 -34.59375 24.296875 -32.75 C 26.660156 -30.90625 27.925781 -28.335938 28.09375 -25.046875 L 18.859375 -25.046875 C 18.796875 -26.171875 18.378906 -27.054688 17.609375 -27.703125 C 16.847656 -28.359375 15.867188 -28.6875 14.671875 -28.6875 C 13.640625 -28.6875 12.804688 -28.410156 12.171875 -27.859375 C 11.535156 -27.316406 11.21875 -26.53125 11.21875 -25.5 C 11.21875 -24.363281 11.75 -23.476562 12.8125 -22.84375 C 13.882812 -22.21875 15.550781 -21.535156 17.8125 -20.796875 C 20.070312 -20.035156 21.90625 -19.304688 23.3125 -18.609375 C 24.726562 -17.910156 25.953125 -16.894531 26.984375 -15.5625 C 28.015625 -14.226562 28.53125 -12.515625 28.53125 -10.421875 C 28.53125 -8.429688 28.023438 -6.617188 27.015625 -4.984375 C 26.003906 -3.359375 24.53125 -2.0625 22.59375 -1.09375 C 20.664062 -0.132812 18.390625 0.34375 15.765625 0.34375 Z M 15.765625 0.34375 "/></g></g></g></svg>