<svg xmlns="http://www.w3.org/2000/svg" xmlns:xlink="http://www.w3.org/1999/xlink" width="500" zoomAndPan="magnify" viewBox="0 0 375 374.999991" height="500" preserveAspectRatio="xMidYMid meet" version="1.0"><defs><g/><clipPath id="e488482c7d"><rect x="0" width="200" y="0" height="375"/></clipPath><clipPath id="0b1ef70cdd"><rect x="0" width="216" y="0" height="375"/></clipPath></defs><g transform="matrix(1, 0, 0, 1, 153, 0)"><g clip-path="url(#e488482c7d)"><g fill="#f84e1d" fill-opacity="1"><g transform="translate(0.571401, 294.542301)"><g><path d="M 127.640625 0 L 83.28125 -80.546875 L 70.8125 -80.546875 L 70.8125 0 L 18.84375 0 L 18.84375 -213.359375 L 106.0625 -213.359375 C 122.882812 -213.359375 137.222656 -210.414062 149.078125 -204.53125 C 160.929688 -198.65625 169.796875 -190.601562 175.671875 -180.375 C 181.546875 -170.144531 184.484375 -158.75 184.484375 -146.1875 C 184.484375 -132 180.476562 -119.332031 172.46875 -108.1875 C 164.46875 -97.050781 152.664062 -89.148438 137.0625 -84.484375 L 186.296875 0 Z M 70.8125 -117.3125 L 103.03125 -117.3125 C 112.550781 -117.3125 119.691406 -119.640625 124.453125 -124.296875 C 129.210938 -128.960938 131.59375 -135.550781 131.59375 -144.0625 C 131.59375 -152.164062 129.210938 -158.546875 124.453125 -163.203125 C 119.691406 -167.867188 112.550781 -170.203125 103.03125 -170.203125 L 70.8125 -170.203125 Z M 70.8125 -117.3125 "/></g></g></g></g></g><g transform="matrix(1, 0, 0, 1, 28, 0)"><g clip-path="url(#0b1ef70cdd)"><g fill="#032330" fill-opacity="1"><g transform="translate(215.455179, 81.468481)"><g><path d="M -143.90625 0 L -71.484375 95.109375 L -71.484375 0 L -19.015625 0 L -19.015625 215.390625 L -71.484375 215.390625 L -71.484375 120.890625 L -143.28125 215.390625 L -204.96875 215.390625 L -121.5 109.84375 L -208.03125 0 Z M -143.90625 0 "/></g></g></g></g></g></svg>